<?xml version="1.0" standalone="no"?>
<!DOCTYPE svg PUBLIC "-//W3C//DTD SVG 20010904//EN"
 "">
<svg version="1.0" xmlns="http://www.w3.org/2000/svg"
 width="761.000000pt" height="1074.000000pt" viewBox="0 0 761.000000 1074.000000"
 preserveAspectRatio="xMidYMid meet">

<g transform="translate(0.000000,1074.000000) scale(0.100000,-0.100000)"
fill="#000000" stroke="none">
<path d="M3735 10675 c-126 -77 -284 -226 -401 -380 -109 -143 -139 -212 -194
-435 -51 -209 -53 -187 43 -326 103 -147 107 -157 70 -180 -83 -52 -134 -133
-117 -187 4 -11 28 -47 55 -79 53 -64 98 -152 124 -242 26 -88 17 -223 -18
-296 -59 -121 -166 -215 -312 -273 -119 -46 -208 -61 -336 -55 -117 6 -179 25
-267 83 -49 33 -58 36 -102 30 -86 -12 -141 -77 -164 -195 -11 -53 -12 -55
-41 -52 -171 14 -276 13 -331 -4 -69 -22 -125 -72 -143 -131 -18 -56 -8 -88
45 -141 24 -25 44 -47 44 -49 0 -2 -35 -38 -78 -81 -66 -64 -82 -87 -99 -137
-21 -64 -20 -63 -126 -111 -32 -14 -65 -37 -73 -50 -9 -13 -20 -59 -25 -101
-6 -57 -13 -81 -26 -88 -32 -19 -238 -213 -294 -276 -219 -253 -380 -492 -521
-774 -185 -368 -288 -805 -305 -1280 -7 -201 7 -311 67 -553 92 -368 199 -640
328 -838 33 -51 87 -156 121 -235 104 -247 233 -457 393 -642 46 -53 116 -137
157 -187 70 -86 212 -216 280 -256 22 -13 35 -31 42 -59 6 -22 20 -57 31 -77
40 -70 196 -116 357 -105 112 8 187 29 216 61 13 14 34 28 48 31 64 17 356
-98 514 -202 32 -20 103 -82 158 -138 55 -55 118 -109 140 -120 42 -21 69 -62
80 -125 12 -66 57 -144 95 -162 48 -24 66 -49 73 -102 4 -26 18 -67 31 -93 24
-44 24 -48 9 -82 -28 -64 -45 -154 -41 -218 3 -55 8 -67 37 -97 18 -18 50 -39
72 -45 51 -15 65 -40 73 -126 9 -95 33 -142 118 -236 81 -89 184 -165 238
-174 45 -8 125 33 227 116 123 101 167 174 179 294 8 86 22 111 73 126 22 6
54 27 72 45 29 30 34 42 37 97 4 64 -13 154 -41 219 -16 35 -16 38 9 83 13 26
27 67 31 92 7 52 25 77 73 101 38 18 83 96 95 162 11 63 38 104 80 125 22 11
85 65 140 120 55 56 126 118 158 138 158 104 450 219 514 202 14 -3 35 -17 48
-31 29 -32 104 -53 216 -61 102 -7 202 8 280 43 65 29 91 67 112 160 l14 59
84 50 c62 37 112 79 190 160 312 322 452 527 602 881 35 83 91 195 125 250 34
55 80 140 103 189 87 185 221 646 255 877 21 141 15 380 -16 613 -60 459 -184
819 -413 1200 -89 148 -251 367 -386 524 -56 63 -262 257 -294 276 -13 7 -20
31 -26 88 -5 42 -16 88 -25 101 -8 13 -41 36 -73 50 -106 48 -105 47 -126 111
-17 50 -33 73 -99 137 -43 43 -78 79 -78 81 0 2 20 24 44 49 53 53 63 85 45
141 -18 59 -74 109 -143 131 -55 17 -160 18 -331 4 -29 -3 -30 -1 -41 52 -23
118 -78 183 -164 195 -44 6 -53 3 -102 -30 -88 -58 -150 -77 -267 -83 -128 -6
-217 9 -336 55 -146 58 -253 152 -312 273 -35 73 -44 208 -18 296 26 90 71
178 124 242 27 32 51 68 55 79 17 54 -34 135 -117 187 -37 23 -33 33 70 180
96 139 94 117 43 326 -36 145 -71 248 -107 309 -71 123 -236 312 -362 415 -70
58 -177 126 -196 126 -6 0 -38 -16 -70 -35z m115 -93 c0 -4 10 -12 23 -17 27
-12 34 -49 13 -70 -14 -14 -18 -12 -43 24 -16 22 -34 40 -41 41 -7 0 -10 -4
-7 -10 3 -5 -3 -10 -14 -10 -14 0 -21 -6 -21 -18 0 -11 -9 -27 -20 -37 -20
-18 -20 -17 -20 18 0 21 5 37 10 37 6 0 9 5 8 12 -2 6 8 17 22 25 27 14 90 18
90 5z m-183 -358 c-3 -3 -12 -4 -19 -1 -8 3 -5 6 6 6 11 1 17 -2 13 -5z m110
-36 c-3 -7 -5 -2 -5 12 0 14 2 19 5 13 2 -7 2 -19 0 -25z m-147 -52 c0 -3 -4
-8 -10 -11 -5 -3 -10 -1 -10 4 0 6 5 11 10 11 6 0 10 -2 10 -4z m160 -16 c0
-11 -7 -20 -15 -20 -8 0 -15 9 -15 20 0 11 7 20 15 20 8 0 15 -9 15 -20z m-85
-1820 c-3 -5 -1 -10 5 -10 7 0 10 -16 8 -42 -2 -35 -7 -44 -24 -46 -48 -7 -57
74 -11 96 28 14 29 14 22 2z m255 -41 c0 -10 -11 -29 -23 -43 -18 -19 -26 -23
-35 -14 -20 20 -12 105 9 92 5 -3 9 0 9 7 0 7 8 5 20 -6 11 -10 20 -26 20 -36z
m-415 -770 c0 -20 -6 -25 -31 -27 -21 -2 -33 2 -37 12 -8 21 16 43 45 41 17
-1 23 -8 23 -26z m260 -465 c18 -4 20 -12 17 -77 -4 -75 12 -172 32 -193 6 -6
20 -24 31 -39 11 -16 55 -45 99 -66 56 -27 80 -45 81 -58 1 -18 0 -18 -37 1
-21 11 -40 24 -43 28 -3 5 -23 11 -45 15 -22 4 -42 11 -46 16 -3 5 -10 7 -15
3 -6 -3 -17 3 -25 14 -7 11 -29 23 -48 26 -22 4 -37 14 -41 26 -7 23 -45 27
-45 5 0 -8 -4 -15 -10 -15 -5 0 -10 17 -10 39 0 23 -9 52 -23 72 -25 38 -24
77 1 87 24 9 81 74 82 93 0 27 11 33 45 23z m-92 -353 c3 -14 1 -18 -9 -14 -8
3 -14 0 -14 -7 0 -6 -5 -8 -10 -5 -6 4 -22 0 -35 -9 -34 -22 -42 -20 -19 5 14
17 56 41 80 49 1 0 4 -9 7 -19z m42 -21 c3 -5 2 -10 -4 -10 -5 0 -13 5 -16 10
-3 6 -2 10 4 10 5 0 13 -4 16 -10z m92 4 c-3 -3 -12 -4 -19 -1 -8 3 -5 6 6 6
11 1 17 -2 13 -5z m-241 -5783 c-9 -10 -16 -24 -16 -32 -1 -18 -28 -54 -35
-47 -3 3 3 21 13 39 10 19 25 45 32 59 8 16 15 20 18 12 2 -7 -3 -21 -12 -31z"/>
</g>
</svg>
